<svg width="357" height="294" viewBox="0 0 357 294" xmlns="http://www.w3.org/2000/svg" xmlns:xlink="http://www.w3.org/1999/xlink"><svg width="170.54" height="137.15" viewBox="-1 -1 46.59 37.76" x="185.97"><g style="line-height:1.25"><path d="M.193.187h1.643q1.642 0 2.221.127.584.127.948.65.37.518.37 1.659 0 1.042-.26 1.4-.259.359-1.02.43.69.171.927.458.236.286.292.529.06.237.06 1.317v2.354H3.22V6.145q0-.716-.116-.887-.11-.17-.59-.17V9.11H.193zm2.32 1.527v1.984q.392 0 .546-.104.16-.11.16-.7v-.491q0-.425-.154-.557-.15-.132-.552-.132zm9.068 3.698q0 1.345-.066 1.908-.06.556-.397 1.02-.33.462-.899.71-.567.248-1.323.248-.716 0-1.29-.231-.567-.237-.914-.706-.347-.468-.414-1.02-.066-.55-.066-1.929V3.886q0-1.346.06-1.902.067-.562.398-1.025.336-.463.904-.711.567-.249 1.322-.249.717 0 1.285.238.573.231.92.7.348.468.414 1.02.066.55.066 1.929zM9.26 2.48q0-.623-.072-.794-.066-.176-.281-.176-.182 0-.281.143-.094.138-.094.827v4.167q0 .777.06.96.067.181.298.181.237 0 .303-.21t.066-.997zm8.61 1.598h-2.32V2.524q0-.678-.077-.843-.072-.171-.326-.171-.286 0-.364.204-.077.204-.077.882V6.74q0 .65.077.849.078.198.348.198.26 0 .336-.198.083-.199.083-.932V5.54h2.32v.347q0 1.384-.198 1.963-.193.578-.865 1.014-.668.435-1.649.435-1.02 0-1.68-.369t-.877-1.02q-.215-.656-.215-1.967V3.334q0-.964.066-1.444.066-.485.391-.931.331-.447.91-.7.584-.26 1.34-.26 1.024 0 1.691.397t.877.992q.21.59.21 1.842zM24.241.187l-1.328 4.03 1.455 4.894H21.97l-.937-3.826v3.826h-2.32V.187h2.32v3.467l1.03-3.467zM.193 13.416H2.53q.948 0 1.455.149.513.149.767.43.259.28.347.683.093.397.093 1.235v.777q0 .855-.176 1.246t-.65.6q-.469.21-1.23.21h-.623v3.594H.193zm2.32 1.527v2.27q.1.006.171.006.32 0 .441-.154.127-.16.127-.656v-.733q0-.458-.143-.595-.143-.138-.596-.138zm7.067-1.527l1.328 8.924H8.533l-.116-1.604h-.832l-.138 1.604H5.044l1.18-8.924zm-1.23 5.738q-.176-1.516-.352-3.743-.353 2.558-.44 3.743zm2.955-5.738h2.338q.947 0 1.455.149.512.149.766.43.259.28.347.683.094.397.094 1.235v.777q0 .855-.177 1.246-.176.391-.65.6-.468.21-1.23.21h-.622v3.594h-2.32zm2.32 1.527v2.27q.1.006.172.006.32 0 .44-.154.128-.16.128-.656v-.733q0-.458-.144-.595-.143-.138-.595-.138zm3.347-1.527h3.87v1.786h-1.55v1.692h1.45v1.698h-1.45v1.962h1.704v1.786h-4.024zm4.696 0h1.643q1.642 0 2.22.127.585.127.95.65.369.518.369 1.659 0 1.042-.26 1.4-.259.359-1.02.43.69.171.927.458.237.286.292.529.06.237.06 1.317v2.354h-2.155v-2.966q0-.716-.116-.887-.11-.17-.59-.17v4.023h-2.32zm2.32 1.527v1.984q.392 0 .546-.104.16-.11.16-.7v-.491q0-.425-.154-.557-.149-.132-.551-.132zM5.11 29.346H2.955v-.662q0-.463-.083-.59-.083-.126-.276-.126-.21 0-.32.17-.104.172-.104.519 0 .446.121.672.116.226.656.546 1.549.92 1.951 1.51.403.59.403 1.902 0 .954-.226 1.406-.22.452-.86.76-.64.303-1.488.303-.932 0-1.593-.352-.656-.353-.86-.899-.204-.546-.204-1.549v-.584h2.155v1.086q0 .501.088.645.094.143.325.143t.342-.182q.116-.182.116-.54 0-.788-.215-1.03-.22-.243-1.086-.811-.865-.573-1.146-.832-.282-.26-.469-.717Q0 29.676 0 28.965q0-1.025.26-1.499.264-.474.848-.738.584-.27 1.411-.27.904 0 1.538.292.64.292.843.738.21.441.21 1.505zm6.344 1.19h-2.32v-1.554q0-.678-.077-.843-.072-.171-.326-.171-.286 0-.364.204-.077.204-.077.882v4.145q0 .65.077.849.078.198.348.198.259 0 .336-.198.083-.199.083-.932v-1.119h2.32v.347q0 1.384-.198 1.963-.193.578-.865 1.014-.668.435-1.649.435-1.02 0-1.68-.369t-.877-1.02q-.215-.656-.215-1.967v-2.608q0-.964.066-1.444.066-.485.391-.931.331-.447.91-.7.584-.26 1.34-.26 1.024 0 1.691.397t.877.992q.21.59.21 1.842zm3.164-3.891v8.924h-2.32v-8.924zm5.837 2.7H18.3v-.66q0-.464-.082-.59-.083-.127-.276-.127-.21 0-.32.17-.104.172-.104.519 0 .446.12.672.117.226.657.546 1.548.92 1.95 1.51.403.59.403 1.902 0 .954-.226 1.406-.22.452-.86.76-.639.303-1.488.303-.931 0-1.593-.352-.656-.353-.86-.899-.204-.546-.204-1.549v-.584h2.156v1.086q0 .501.088.645.094.143.325.143t.342-.182q.116-.182.116-.54 0-.788-.216-1.03-.22-.243-1.085-.811-.866-.573-1.147-.832-.281-.26-.468-.717-.182-.458-.182-1.169 0-1.025.259-1.499.264-.474.849-.738.584-.27 1.41-.27.905 0 1.539.292.639.292.843.738.21.441.21 1.505zm5.843 0h-2.155v-.66q0-.464-.083-.59-.082-.127-.275-.127-.21 0-.32.17-.105.172-.105.519 0 .446.121.672.116.226.657.546 1.548.92 1.95 1.51.403.59.403 1.902 0 .954-.226 1.406-.22.452-.86.76-.639.303-1.488.303-.931 0-1.593-.352-.656-.353-.86-.899-.204-.546-.204-1.549v-.584h2.155v1.086q0 .501.089.645.093.143.325.143.231 0 .342-.182.115-.182.115-.54 0-.788-.215-1.03-.22-.243-1.086-.811-.865-.573-1.146-.832-.281-.26-.468-.717-.182-.458-.182-1.169 0-1.025.259-1.499.264-.474.848-.738.585-.27 1.412-.27.903 0 1.537.292.64.292.844.738.21.441.21 1.505zm6.229 2.525q0 1.345-.067 1.908-.06.556-.396 1.02-.331.462-.899.71-.567.248-1.323.248-.716 0-1.29-.231-.567-.237-.914-.706-.348-.468-.414-1.02-.066-.55-.066-1.929v-1.526q0-1.346.06-1.902.067-.562.398-1.025.336-.463.904-.711.567-.249 1.322-.249.717 0 1.285.238.573.231.92.7.348.468.414 1.02.066.55.066 1.929zm-2.32-2.932q0-.623-.072-.794-.066-.176-.281-.176-.182 0-.282.143-.093.138-.093.827v4.167q0 .777.06.96.067.181.298.181.237 0 .303-.21.066-.209.066-.997zm3.19-2.293h1.643q1.643 0 2.222.127.584.127.948.65.37.518.37 1.659 0 1.042-.26 1.4-.259.359-1.02.43.69.171.926.458.237.286.293.529.06.237.06 1.317v2.354h-2.155v-2.966q0-.716-.116-.887-.11-.17-.59-.17v4.023h-2.32zm2.321 1.527v1.984q.392 0 .546-.104.16-.11.16-.7v-.491q0-.425-.154-.557-.15-.132-.552-.132zm8.682 1.174h-2.155v-.662q0-.463-.083-.59-.083-.126-.276-.126-.21 0-.32.17-.104.172-.104.519 0 .446.121.672.116.226.656.546 1.549.92 1.951 1.51.403.59.403 1.902 0 .954-.226 1.406-.22.452-.86.76-.64.303-1.488.303-.932 0-1.593-.352-.656-.353-.86-.899-.204-.546-.204-1.549v-.584h2.155v1.086q0 .501.088.645.094.143.326.143t.341-.182q.116-.182.116-.54 0-.788-.215-1.03-.22-.243-1.086-.811-.865-.573-1.146-.832-.282-.26-.469-.717-.182-.458-.182-1.169 0-1.025.26-1.499.264-.474.848-.738.584-.27 1.411-.27.904 0 1.538.292.64.292.843.738.21.441.21 1.505z" style="line-height:0;-inkscape-font-specification:'Impact Condensed'" font-weight="400" font-size="42.667" font-family="Impact" letter-spacing="0" word-spacing="0" font-stretch="condensed"/></g></svg><svg width="181.92" height="162.01" viewBox="-1 -1 49.6 44.34" y="131.48"><path d="M11.879 39.961c-.785 2.2-2.641 1.94-4.539 1.098-2.684-1.191-6.255-6.628-6.609-9.193-.325-2.354.517-4.198 2.35-4.438" fill="#fff" stroke="#000" stroke-width="1.323" stroke-linecap="round" stroke-linejoin="round"/><path d="M2.983 8.145c-2.859.62-1.273 5.148 1.135 9.57.935 1.717-1.71 8.728-.08 13.192 1.06 2.905 5.042 8.21 7.848 8.94 4.804 1.252 9.025.433 13.244-1.812 1.496-.795 3.023-1.928 4.17-2.979 3.764-3.451 16.235-7.731 17.03-8.825 2.211-3.037-2.088-4.962-4.453-4.173-1.145.382-9.878 2.198-8.714 1.224 2.858-2.394 6.587-4.931 10.245-7.126 5.474-3.284-1.321-9.136-6.415-6.008-2.387 1.465-4.551 2.408-9.8 5.803 1.955-2.904 4.605-7.27 6.823-9.811 3.657-4.192-3.845-8.229-8.21-3.01-2.969 3.556-7.624 10.546-14.007 15.217.055-3.997-.19-12.074-8.814-10.203z" fill="#fff" stroke="#000" stroke-width="1.323" stroke-linecap="round" stroke-linejoin="round"/><path style="text-indent:0;text-transform:none" d="M26.839 15.297c-2.58 3.366-3.135 5.684-3.543 6.71 1.56-2.155 1.899-2.743 3.737-4.915.312-.369.736-.747 1.324-1.122zm5.889 7.487c-1.905 1.597-3.82 3.982-4.682 5.88 1.027-.888 2.78-2.429 4.314-3.808.416-.375.88-.607 1.674-.662-.532-.376-.9-.91-1.306-1.41z" color="#000"/><path d="M11.786 35.916c3.277-.964 3.97-1.552 5.47-2.256m-7.571.026c3.25-1.927 4.631-3.159 6.68-4.639m-9.108 1.902c2.039-1.612 2.85-2.563 4.043-3.718" fill="none" stroke="#000" stroke-width="1.323" stroke-linecap="round" stroke-linejoin="round"/></svg><svg width="139.27" height="119.17" viewBox="-1 -1 38.32 33" x="185.97" y="137.15"><path d="M31.56 20.455c2.154.883 3.19-.672 3.83-2.647.904-2.795-.765-9.08-2.434-11.057-1.545-1.811-3.457-2.418-4.879-1.21" fill="#fff" stroke="#000" stroke-width="1.323" stroke-linecap="round" stroke-linejoin="round"/><path d="M13.603.866C18.608-.22 27.281 3.254 30.048 8.573c1.399 2.752 2.736 9.235 1.402 11.814-2.26 4.413-5.704 7.01-10.19 8.658-1.589.582-3.441.961-5 1.116-6.36.683-11.373-.556-11.332-4.979-5.38-.485-5.423-8.665-1.48-9.337-5.233-3.338-1.912-9.949 3.952-8.391.566-1.017 1.007-5.459 6.203-6.588z" fill="#fff" stroke="#000" stroke-width="1.323" stroke-linecap="round" stroke-linejoin="round"/><path d="M3.743 16.484c4.194.623 5.774-.15 6.882-.286-2.65-.323-3.33-.334-6.121-.887a3.76 3.76 0 0 1-1.542-.649l.026 2.014c-.094.03.453-.19.755-.192zm.77 9.3c2.487.1 5.556-.06 7.468-.885-1.368-.035-4.9-.36-6.96-.37 0-.004.003.003-.508 1.255z"/><path d="M28.608 17.686c-2.911 1.799-3.815 1.924-5.328 2.569m5.069-5.623c-3.611 1.139-5.458 1.347-7.912 1.883m7.493-5.516c-2.567.444-3.825.416-5.457.53" fill="none" stroke="#000" stroke-width="1.323" stroke-linecap="round" stroke-linejoin="round"/><path d="M6.97 6.77c5.598.386 7.457-1.593 10.016-3.12-2.564 2.108-3.168 4.513-9.645 4.464z"/></svg><svg width="185.97" height="131.48" viewBox="-1 -1 50.68 36.26"><path d="M3.805 16.676c-2.298.37-2.954-1.38-3.128-3.449-.245-2.926 2.81-8.668 4.885-10.213 1.916-1.413 3.916-1.569 5.026-.068" fill="#fff" stroke="#000" stroke-width="1.323" stroke-linecap="round" stroke-linejoin="round"/><path d="M25.746 1.684C21.12-.512 11.884.899 7.979 5.449 5.992 7.811 3.215 13.82 3.928 16.635c1.197 4.812 3.96 8.125 7.953 10.749 1.415.928 3.133 1.719 4.615 2.224 5.454 1.779 10.236-1.028 12.168-2.271 3.474 1.358 7.491 3.41 11.174 5.566 5.508 3.223 7.378-5.547 2.187-8.514-2.43-1.389-4.299-2.835-9.797-5.809 3.487.32 8.589.549 11.883 1.273 5.434 1.195 5.37-7.324-1.304-8.646-4.545-.9-8.18-.86-12.518-1.697-.32-1.118.26-5.544-4.543-7.826z" fill="#fff" stroke="#000" stroke-width="1.323" stroke-linecap="round" stroke-linejoin="round"/><path d="M32.623 17.952c-4.191-.647-6.49-.02-7.598.11 2.649.338 3.329.353 6.116.922.474.097 1.008.288 1.62.623zm-3.739 8.761c-2.318-.905-5.327-1.438-7.404-1.282 2.531.929 4.53 1.66 6.962 2.488.003-.006.197-.61.441-1.207z"/><path d="M7.309 14.651c2.426 2.414 3.278 2.741 4.604 3.714m-3.657-6.628c3.258 1.93 5.009 2.552 7.277 3.632M9.49 8.293c2.4 1.017 3.63 1.276 5.193 1.758" fill="none" stroke="#000" stroke-width="1.323" stroke-linecap="round" stroke-linejoin="round"/><path d="M30.863 8.943c-5.539-.898-6.9-3.248-9.044-5.317 2.018 2.636 2.059 5.115 8.377 6.54z"/></svg></svg>