<?xml version="1.0" encoding="UTF-8" standalone="no"?>
<!-- Created with Inkscape (http://www.inkscape.org/) -->

<svg
   xmlns:dc="http://purl.org/dc/elements/1.1/"
   xmlns:cc="http://creativecommons.org/ns#"
   xmlns:rdf="http://www.w3.org/1999/02/22-rdf-syntax-ns#"
   xmlns:svg="http://www.w3.org/2000/svg"
   xmlns="http://www.w3.org/2000/svg"
   xmlns:sodipodi="http://sodipodi.sourceforge.net/DTD/sodipodi-0.dtd"
   xmlns:inkscape="http://www.inkscape.org/namespaces/inkscape"
   width="44.593315mm"
   height="35.757336mm"
   viewBox="0 0 44.593315 35.757336"
   version="1.1"
   id="svg8"
   sodipodi:docname="logo.svg"
   inkscape:version="0.92.1 r15371">
  <defs
     id="defs2" />
  <sodipodi:namedview
     id="base"
     pagecolor="#ffffff"
     bordercolor="#666666"
     borderopacity="1.0"
     inkscape:pageopacity="0.0"
     inkscape:pageshadow="2"
     inkscape:zoom="1.979899"
     inkscape:cx="49.290801"
     inkscape:cy="44.694409"
     inkscape:document-units="mm"
     inkscape:current-layer="flowRoot10"
     showgrid="false"
     inkscape:window-width="1920"
     inkscape:window-height="1017"
     inkscape:window-x="-8"
     inkscape:window-y="-8"
     inkscape:window-maximized="1" />
  <metadata
     id="metadata5">
    <rdf:RDF>
      <cc:Work
         rdf:about="">
        <dc:format>image/svg+xml</dc:format>
        <dc:type
           rdf:resource="http://purl.org/dc/dcmitype/StillImage" />
        <dc:title></dc:title>
      </cc:Work>
    </rdf:RDF>
  </metadata>
  <g
     inkscape:label="Layer 1"
     inkscape:groupmode="layer"
     id="layer1"
     transform="translate(-25.972402,-27.668866)">
    <g
       aria-label="ROCK
PAPER
SCISSORS"
       transform="scale(0.26458333)"
       style="font-style:normal;font-weight:normal;font-size:40px;line-height:1.25;font-family:sans-serif;letter-spacing:0px;word-spacing:0px;fill:#000000;fill-opacity:1;stroke:none"
       id="flowRoot10">
      <path
         d="m 98.892578,105.28358 h 6.208332 q 6.20834,0 8.39584,0.47916 2.20833,0.47917 3.58333,2.45834 1.39583,1.95833 1.39583,6.27083 0,3.9375 -0.97916,5.29167 -0.97917,1.35416 -3.85417,1.625 2.60417,0.64583 3.5,1.72916 0.89583,1.08334 1.10417,2 0.22916,0.89584 0.22916,4.97917 v 8.89583 h -8.14583 v -11.20833 q 0,-2.70833 -0.4375,-3.35417 -0.41667,-0.64583 -2.22917,-0.64583 v 15.20833 h -8.770832 z m 8.770832,5.77083 v 7.5 q 1.47917,0 2.0625,-0.39583 0.60417,-0.41667 0.60417,-2.64584 v -1.85416 q 0,-1.60417 -0.58333,-2.10417 -0.5625,-0.5 -2.08334,-0.5 z"
         style="font-style:normal;font-variant:normal;font-weight:normal;font-stretch:condensed;font-size:42.66666794px;line-height:0;font-family:Impact;-inkscape-font-specification:'Impact Condensed'"
         id="path22" />
      <path
         d="m 141.93425,125.03358 q 0,5.08333 -0.25,7.20833 -0.22917,2.10417 -1.5,3.85417 -1.25,1.75 -3.39584,2.6875 -2.14583,0.9375 -5,0.9375 -2.70833,0 -4.875,-0.875 -2.14583,-0.89584 -3.45833,-2.66667 -1.3125,-1.77083 -1.5625,-3.85417 -0.25,-2.08333 -0.25,-7.29166 v -5.77084 q 0,-5.08333 0.22916,-7.1875 0.25,-2.125 1.5,-3.875 1.27084,-1.75 3.41667,-2.6875 2.14584,-0.9375 5,-0.9375 2.70834,0 4.85417,0.89584 2.16667,0.875 3.47917,2.64583 1.3125,1.77083 1.5625,3.85417 0.25,2.08333 0.25,7.29166 z m -8.77084,-11.08334 q 0,-2.35416 -0.27083,-3 -0.25,-0.66666 -1.0625,-0.66666 -0.6875,0 -1.0625,0.54166 -0.35417,0.52084 -0.35417,3.125 v 15.75 q 0,2.9375 0.22917,3.625 0.25,0.6875 1.125,0.6875 0.89583,0 1.14583,-0.79166 0.25,-0.79167 0.25,-3.77084 z"
         style="font-style:normal;font-variant:normal;font-weight:normal;font-stretch:condensed;font-size:42.66666794px;line-height:0;font-family:Impact;-inkscape-font-specification:'Impact Condensed'"
         id="path24" />
      <path
         d="m 165.70508,119.99191 h -8.77083 v -5.875 q 0,-2.5625 -0.29167,-3.1875 -0.27083,-0.64583 -1.22917,-0.64583 -1.08333,0 -1.375,0.77083 -0.29166,0.77083 -0.29166,3.33333 v 15.66667 q 0,2.45833 0.29166,3.20833 0.29167,0.75 1.3125,0.75 0.97917,0 1.27084,-0.75 0.3125,-0.75 0.3125,-3.52083 v -4.22917 h 8.77083 v 1.3125 q 0,5.22917 -0.75,7.41667 -0.72917,2.1875 -3.27083,3.83333 -2.52084,1.64584 -6.22917,1.64584 -3.85417,0 -6.35417,-1.39584 -2.5,-1.39583 -3.3125,-3.85416 -0.8125,-2.47917 -0.8125,-7.4375 v -9.85417 q 0,-3.64583 0.25,-5.45833 0.25,-1.83334 1.47917,-3.52084 1.25,-1.6875 3.4375,-2.64583 2.20833,-0.97917 5.0625,-0.97917 3.875,0 6.39583,1.5 2.52084,1.5 3.3125,3.75 0.79167,2.22917 0.79167,6.95834 z"
         style="font-style:normal;font-variant:normal;font-weight:normal;font-stretch:condensed;font-size:42.66666794px;line-height:0;font-family:Impact;-inkscape-font-specification:'Impact Condensed'"
         id="path26" />
      <path
         d="m 189.78841,105.28358 -5.02083,15.22916 5.5,18.5 h -9.0625 l -3.54167,-14.45833 v 14.45833 h -8.77083 v -33.72916 h 8.77083 v 13.10416 l 3.89584,-13.10416 z"
         style="font-style:normal;font-variant:normal;font-weight:normal;font-stretch:condensed;font-size:42.66666794px;line-height:0;font-family:Impact;-inkscape-font-specification:'Impact Condensed'"
         id="path28" />
      <path
         d="m 98.892578,155.28358 h 8.833332 q 3.58334,0 5.5,0.5625 1.9375,0.5625 2.89584,1.625 0.97916,1.0625 1.3125,2.58333 0.35416,1.5 0.35416,4.66667 v 2.9375 q 0,3.22916 -0.66666,4.70833 -0.66667,1.47917 -2.45834,2.27083 -1.77083,0.79167 -4.64583,0.79167 h -2.35417 v 13.58333 h -8.770832 z m 8.770832,5.77083 v 8.58333 q 0.375,0.0208 0.64584,0.0208 1.20833,0 1.66666,-0.58334 0.47917,-0.60416 0.47917,-2.47916 v -2.77084 q 0,-1.72916 -0.54167,-2.25 -0.54166,-0.52083 -2.25,-0.52083 z"
         style="font-style:normal;font-variant:normal;font-weight:normal;font-stretch:condensed;font-size:42.66666794px;line-height:0;font-family:Impact;-inkscape-font-specification:'Impact Condensed'"
         id="path30" />
      <path
         d="m 134.37175,155.28358 5.02083,33.72916 h -8.97917 l -0.4375,-6.0625 h -3.14583 l -0.52083,6.0625 h -9.08334 l 4.45834,-33.72916 z m -4.64584,21.6875 q -0.66666,-5.72917 -1.33333,-14.14584 -1.33333,9.66667 -1.66667,14.14584 z"
         style="font-style:normal;font-variant:normal;font-weight:normal;font-stretch:condensed;font-size:42.66666794px;line-height:0;font-family:Impact;-inkscape-font-specification:'Impact Condensed'"
         id="path32" />
      <path
         d="m 140.89258,155.28358 h 8.83333 q 3.58334,0 5.5,0.5625 1.9375,0.5625 2.89584,1.625 0.97916,1.0625 1.3125,2.58333 0.35416,1.5 0.35416,4.66667 v 2.9375 q 0,3.22916 -0.66666,4.70833 -0.66667,1.47917 -2.45834,2.27083 -1.77083,0.79167 -4.64583,0.79167 h -2.35417 v 13.58333 h -8.77083 z m 8.77083,5.77083 v 8.58333 q 0.375,0.0208 0.64584,0.0208 1.20833,0 1.66666,-0.58334 0.47917,-0.60416 0.47917,-2.47916 v -2.77084 q 0,-1.72916 -0.54167,-2.25 -0.54166,-0.52083 -2.25,-0.52083 z"
         style="font-style:normal;font-variant:normal;font-weight:normal;font-stretch:condensed;font-size:42.66666794px;line-height:0;font-family:Impact;-inkscape-font-specification:'Impact Condensed'"
         id="path34" />
      <path
         d="m 162.30925,155.28358 h 14.625 v 6.75 h -5.85417 v 6.39583 h 5.47917 v 6.41667 h -5.47917 v 7.41666 h 6.4375 v 6.75 h -15.20833 z"
         style="font-style:normal;font-variant:normal;font-weight:normal;font-stretch:condensed;font-size:42.66666794px;line-height:0;font-family:Impact;-inkscape-font-specification:'Impact Condensed'"
         id="path36" />
      <path
         d="m 180.05925,155.28358 h 6.20833 q 6.20834,0 8.39584,0.47916 2.20833,0.47917 3.58333,2.45834 1.39583,1.95833 1.39583,6.27083 0,3.9375 -0.97916,5.29167 -0.97917,1.35416 -3.85417,1.625 2.60417,0.64583 3.5,1.72916 0.89583,1.08334 1.10417,2 0.22916,0.89584 0.22916,4.97917 v 8.89583 h -8.14583 v -11.20833 q 0,-2.70833 -0.4375,-3.35417 -0.41667,-0.64583 -2.22917,-0.64583 v 15.20833 h -8.77083 z m 8.77083,5.77083 v 7.5 q 1.47917,0 2.0625,-0.39583 0.60417,-0.41667 0.60417,-2.64584 v -1.85416 q 0,-1.60417 -0.58333,-2.10417 -0.5625,-0.5 -2.08334,-0.5 z"
         style="font-style:normal;font-variant:normal;font-weight:normal;font-stretch:condensed;font-size:42.66666794px;line-height:0;font-family:Impact;-inkscape-font-specification:'Impact Condensed'"
         id="path38" />
      <path
         d="m 117.47591,215.49191 h -8.14583 v -2.5 q 0,-1.75 -0.3125,-2.22917 -0.3125,-0.47916 -1.04167,-0.47916 -0.79166,0 -1.20833,0.64583 -0.39583,0.64583 -0.39583,1.95833 0,1.6875 0.45833,2.54167 0.4375,0.85417 2.47917,2.0625 5.85416,3.47917 7.375,5.70833 1.52083,2.22917 1.52083,7.1875 0,3.60417 -0.85417,5.3125 -0.83333,1.70834 -3.25,2.875 -2.41666,1.14584 -5.625,1.14584 -3.52083,0 -6.02083,-1.33334 -2.479168,-1.33333 -3.250002,-3.39583 -0.770833,-2.0625 -0.770833,-5.85417 v -2.20833 h 8.145835 v 4.10417 q 0,1.89583 0.33333,2.4375 0.35417,0.54166 1.22917,0.54166 0.875,0 1.29167,-0.6875 0.4375,-0.6875 0.4375,-2.04166 0,-2.97917 -0.8125,-3.89584 -0.83334,-0.91666 -4.10417,-3.0625 -3.27084,-2.16666 -4.33334,-3.14583 -1.062495,-0.97917 -1.770828,-2.70833 -0.687501,-1.72917 -0.687501,-4.41667 0,-3.875 0.979167,-5.66667 1.000002,-1.79166 3.208332,-2.79166 2.20834,-1.02084 5.33334,-1.02084 3.41666,0 5.8125,1.10417 2.41666,1.10417 3.1875,2.79167 0.79166,1.66666 0.79166,5.6875 z"
         style="font-style:normal;font-variant:normal;font-weight:normal;font-stretch:condensed;font-size:42.66666794px;line-height:0;font-family:Impact;-inkscape-font-specification:'Impact Condensed'"
         id="path40" />
      <path
         d="m 141.45508,219.99191 h -8.77083 v -5.875 q 0,-2.5625 -0.29167,-3.1875 -0.27083,-0.64583 -1.22917,-0.64583 -1.08333,0 -1.375,0.77083 -0.29166,0.77083 -0.29166,3.33333 v 15.66667 q 0,2.45833 0.29166,3.20833 0.29167,0.75 1.3125,0.75 0.97917,0 1.27084,-0.75 0.3125,-0.75 0.3125,-3.52083 v -4.22917 h 8.77083 v 1.3125 q 0,5.22917 -0.75,7.41667 -0.72917,2.1875 -3.27083,3.83333 -2.52084,1.64584 -6.22917,1.64584 -3.85417,0 -6.35417,-1.39584 -2.5,-1.39583 -3.3125,-3.85416 -0.8125,-2.47917 -0.8125,-7.4375 v -9.85417 q 0,-3.64583 0.25,-5.45833 0.25,-1.83334 1.47917,-3.52084 1.25,-1.6875 3.4375,-2.64583 2.20833,-0.97917 5.0625,-0.97917 3.875,0 6.39583,1.5 2.52084,1.5 3.3125,3.75 0.79167,2.22917 0.79167,6.95834 z"
         style="font-style:normal;font-variant:normal;font-weight:normal;font-stretch:condensed;font-size:42.66666794px;line-height:0;font-family:Impact;-inkscape-font-specification:'Impact Condensed'"
         id="path42" />
      <path
         d="m 153.41341,205.28358 v 33.72916 h -8.77083 v -33.72916 z"
         style="font-style:normal;font-variant:normal;font-weight:normal;font-stretch:condensed;font-size:42.66666794px;line-height:0;font-family:Impact;-inkscape-font-specification:'Impact Condensed'"
         id="path44" />
      <path
         d="m 175.47591,215.49191 h -8.14583 v -2.5 q 0,-1.75 -0.3125,-2.22917 -0.3125,-0.47916 -1.04167,-0.47916 -0.79166,0 -1.20833,0.64583 -0.39583,0.64583 -0.39583,1.95833 0,1.6875 0.45833,2.54167 0.4375,0.85417 2.47917,2.0625 5.85416,3.47917 7.375,5.70833 1.52083,2.22917 1.52083,7.1875 0,3.60417 -0.85417,5.3125 -0.83333,1.70834 -3.25,2.875 -2.41666,1.14584 -5.625,1.14584 -3.52083,0 -6.02083,-1.33334 -2.47917,-1.33333 -3.25,-3.39583 -0.77084,-2.0625 -0.77084,-5.85417 v -2.20833 h 8.14584 v 4.10417 q 0,1.89583 0.33333,2.4375 0.35417,0.54166 1.22917,0.54166 0.875,0 1.29167,-0.6875 0.4375,-0.6875 0.4375,-2.04166 0,-2.97917 -0.8125,-3.89584 -0.83334,-0.91666 -4.10417,-3.0625 -3.27084,-2.16666 -4.33334,-3.14583 -1.0625,-0.97917 -1.77083,-2.70833 -0.6875,-1.72917 -0.6875,-4.41667 0,-3.875 0.97917,-5.66667 1,-1.79166 3.20833,-2.79166 2.20834,-1.02084 5.33334,-1.02084 3.41666,0 5.8125,1.10417 2.41666,1.10417 3.1875,2.79167 0.79166,1.66666 0.79166,5.6875 z"
         style="font-style:normal;font-variant:normal;font-weight:normal;font-stretch:condensed;font-size:42.66666794px;line-height:0;font-family:Impact;-inkscape-font-specification:'Impact Condensed'"
         id="path46" />
      <path
         d="m 197.55925,215.49191 h -8.14584 v -2.5 q 0,-1.75 -0.3125,-2.22917 -0.3125,-0.47916 -1.04166,-0.47916 -0.79167,0 -1.20834,0.64583 -0.39583,0.64583 -0.39583,1.95833 0,1.6875 0.45833,2.54167 0.4375,0.85417 2.47917,2.0625 5.85417,3.47917 7.375,5.70833 1.52083,2.22917 1.52083,7.1875 0,3.60417 -0.85416,5.3125 -0.83334,1.70834 -3.25,2.875 -2.41667,1.14584 -5.625,1.14584 -3.52084,0 -6.02084,-1.33334 -2.47916,-1.33333 -3.25,-3.39583 -0.77083,-2.0625 -0.77083,-5.85417 v -2.20833 h 8.14583 v 4.10417 q 0,1.89583 0.33334,2.4375 0.35416,0.54166 1.22916,0.54166 0.875,0 1.29167,-0.6875 0.4375,-0.6875 0.4375,-2.04166 0,-2.97917 -0.8125,-3.89584 -0.83333,-0.91666 -4.10417,-3.0625 -3.27083,-2.16666 -4.33333,-3.14583 -1.0625,-0.97917 -1.77083,-2.70833 -0.6875,-1.72917 -0.6875,-4.41667 0,-3.875 0.97916,-5.66667 1,-1.79166 3.20834,-2.79166 2.20833,-1.02084 5.33333,-1.02084 3.41667,0 5.8125,1.10417 2.41667,1.10417 3.1875,2.79167 0.79167,1.66666 0.79167,5.6875 z"
         style="font-style:normal;font-variant:normal;font-weight:normal;font-stretch:condensed;font-size:42.66666794px;line-height:0;font-family:Impact;-inkscape-font-specification:'Impact Condensed'"
         id="path48" />
      <path
         d="m 221.10092,225.03358 q 0,5.08333 -0.25,7.20833 -0.22917,2.10417 -1.5,3.85417 -1.25,1.75 -3.39584,2.6875 -2.14583,0.9375 -5,0.9375 -2.70833,0 -4.875,-0.875 -2.14583,-0.89584 -3.45833,-2.66667 -1.3125,-1.77083 -1.5625,-3.85417 -0.25,-2.08333 -0.25,-7.29166 v -5.77084 q 0,-5.08333 0.22917,-7.1875 0.25,-2.125 1.5,-3.875 1.27083,-1.75 3.41666,-2.6875 2.14584,-0.9375 5,-0.9375 2.70834,0 4.85417,0.89584 2.16667,0.875 3.47917,2.64583 1.3125,1.77083 1.5625,3.85417 0.25,2.08333 0.25,7.29166 z m -8.77084,-11.08334 q 0,-2.35416 -0.27083,-3 -0.25,-0.66666 -1.0625,-0.66666 -0.6875,0 -1.0625,0.54166 -0.35417,0.52084 -0.35417,3.125 v 15.75 q 0,2.9375 0.22917,3.625 0.25,0.6875 1.125,0.6875 0.89583,0 1.14583,-0.79166 0.25,-0.79167 0.25,-3.77084 z"
         style="font-style:normal;font-variant:normal;font-weight:normal;font-stretch:condensed;font-size:42.66666794px;line-height:0;font-family:Impact;-inkscape-font-specification:'Impact Condensed'"
         id="path50" />
      <path
         d="m 224.39258,205.28358 h 6.20833 q 6.20834,0 8.39584,0.47916 2.20833,0.47917 3.58333,2.45834 1.39583,1.95833 1.39583,6.27083 0,3.9375 -0.97916,5.29167 -0.97917,1.35416 -3.85417,1.625 2.60417,0.64583 3.5,1.72916 0.89583,1.08334 1.10417,2 0.22916,0.89584 0.22916,4.97917 v 8.89583 h -8.14583 v -11.20833 q 0,-2.70833 -0.4375,-3.35417 -0.41667,-0.64583 -2.22917,-0.64583 v 15.20833 h -8.77083 z m 8.77083,5.77083 v 7.5 q 1.47917,0 2.0625,-0.39583 0.60417,-0.41667 0.60417,-2.64584 v -1.85416 q 0,-1.60417 -0.58333,-2.10417 -0.5625,-0.5 -2.08334,-0.5 z"
         style="font-style:normal;font-variant:normal;font-weight:normal;font-stretch:condensed;font-size:42.66666794px;line-height:0;font-family:Impact;-inkscape-font-specification:'Impact Condensed'"
         id="path52" />
      <path
         d="m 265.97591,215.49191 h -8.14583 v -2.5 q 0,-1.75 -0.3125,-2.22917 -0.3125,-0.47916 -1.04167,-0.47916 -0.79166,0 -1.20833,0.64583 -0.39583,0.64583 -0.39583,1.95833 0,1.6875 0.45833,2.54167 0.4375,0.85417 2.47917,2.0625 5.85416,3.47917 7.375,5.70833 1.52083,2.22917 1.52083,7.1875 0,3.60417 -0.85417,5.3125 -0.83333,1.70834 -3.25,2.875 -2.41666,1.14584 -5.625,1.14584 -3.52083,0 -6.02083,-1.33334 -2.47917,-1.33333 -3.25,-3.39583 -0.77084,-2.0625 -0.77084,-5.85417 v -2.20833 h 8.14584 v 4.10417 q 0,1.89583 0.33333,2.4375 0.35417,0.54166 1.22917,0.54166 0.875,0 1.29167,-0.6875 0.4375,-0.6875 0.4375,-2.04166 0,-2.97917 -0.8125,-3.89584 -0.83334,-0.91666 -4.10417,-3.0625 -3.27084,-2.16666 -4.33334,-3.14583 -1.0625,-0.97917 -1.77083,-2.70833 -0.6875,-1.72917 -0.6875,-4.41667 0,-3.875 0.97917,-5.66667 1,-1.79166 3.20833,-2.79166 2.20834,-1.02084 5.33334,-1.02084 3.41666,0 5.8125,1.10417 2.41666,1.10417 3.1875,2.79167 0.79166,1.66666 0.79166,5.6875 z"
         style="font-style:normal;font-variant:normal;font-weight:normal;font-stretch:condensed;font-size:42.66666794px;line-height:0;font-family:Impact;-inkscape-font-specification:'Impact Condensed'"
         id="path54" />
    </g>
  </g>
</svg>
