<?xml version="1.0" encoding="UTF-8" standalone="no"?>
<!-- Created with Inkscape (http://www.inkscape.org/) -->

<svg
   xmlns:dc="http://purl.org/dc/elements/1.1/"
   xmlns:cc="http://creativecommons.org/ns#"
   xmlns:rdf="http://www.w3.org/1999/02/22-rdf-syntax-ns#"
   xmlns:svg="http://www.w3.org/2000/svg"
   xmlns="http://www.w3.org/2000/svg"
   xmlns:sodipodi="http://sodipodi.sourceforge.net/DTD/sodipodi-0.dtd"
   xmlns:inkscape="http://www.inkscape.org/namespaces/inkscape"
   width="47.602726mm"
   height="42.335445mm"
   viewBox="0 0 47.602726 42.335445"
   version="1.1"
   id="svg3862"
   inkscape:version="0.92.1 r15371"
   sodipodi:docname="paper.svg">
  <defs
     id="defs3856" />
  <sodipodi:namedview
     id="base"
     pagecolor="#ffffff"
     bordercolor="#666666"
     borderopacity="1.0"
     inkscape:pageopacity="0.0"
     inkscape:pageshadow="2"
     inkscape:zoom="0.35"
     inkscape:cx="301.38648"
     inkscape:cy="-208.56744"
     inkscape:document-units="mm"
     inkscape:current-layer="layer1"
     showgrid="false"
     inkscape:window-width="1920"
     inkscape:window-height="1017"
     inkscape:window-x="1912"
     inkscape:window-y="-8"
     inkscape:window-maximized="1" />
  <metadata
     id="metadata3859">
    <rdf:RDF>
      <cc:Work
         rdf:about="">
        <dc:format>image/svg+xml</dc:format>
        <dc:type
           rdf:resource="http://purl.org/dc/dcmitype/StillImage" />
        <dc:title></dc:title>
      </cc:Work>
    </rdf:RDF>
  </metadata>
  <g
     inkscape:label="Layer 1"
     inkscape:groupmode="layer"
     id="layer1"
     transform="translate(-26.091494,-51.314421)">
    <path
       id="path3894-6-1-0-5-5-2-9"
       style="fill:#ffffff;stroke:#000000;stroke-width:1.3229121;stroke-linecap:round;stroke-linejoin:round"
       inkscape:connector-curvature="0"
       d="m 37.970545,91.275384 c -0.785579,2.199666 -2.641834,1.938983 -4.539468,1.097272 -2.684343,-1.190996 -6.254651,-6.627567 -6.608672,-9.192834 -0.324936,-2.354316 0.516773,-4.198313 2.349756,-4.437933" />
    <path
       id="path3112-2-8-6-8-2-9-8"
       style="fill:#ffffff;stroke:#000000;stroke-width:1.3229121;stroke-linecap:round;stroke-linejoin:round"
       inkscape:connector-curvature="0"
       d="m 29.074375,59.458698 c -2.859039,0.620247 -1.272921,5.148584 1.134638,9.570495 0.934825,1.71707 -1.709728,8.727375 -0.08012,13.192104 1.060103,2.904734 5.042548,8.209074 7.848233,8.940144 4.804021,1.251611 9.024837,0.432395 13.244224,-1.812227 1.495687,-0.795612 3.022886,-1.927754 4.169301,-2.978782 3.764675,-3.451484 16.23523,-7.731871 17.030803,-8.82514 2.211002,-3.037257 -2.088586,-4.962728 -4.453255,-4.173585 -1.145368,0.382213 -9.8783,2.198531 -8.714663,1.224088 2.858439,-2.393849 6.587342,-4.93105 10.245447,-7.125771 5.474036,-3.284213 -1.321099,-9.135856 -6.415132,-6.008097 -2.386423,1.465211 -4.551072,2.40807 -9.799971,5.802911 1.954694,-2.903931 4.605068,-7.268994 6.823009,-9.810988 3.657187,-4.191794 -3.845063,-8.228468 -8.20897,-3.009357 -2.9718,3.554311 -7.625866,10.544087 -14.008951,15.216066 0.05501,-3.996704 -0.190601,-12.073155 -8.814188,-10.202497 z" />
    <path
       id="path3882-6-1-33-9-9-7-9"
       style="color:#000000;text-indent:0;text-transform:none;fill:#000000;stroke-width:0.32572812"
       inkscape:connector-curvature="0"
       d="m 52.929761,66.611392 c -2.580507,3.365598 -3.135201,5.683346 -3.542802,6.708973 1.560548,-2.154353 1.899029,-2.742225 3.73748,-4.914613 0.31169,-0.368309 0.736007,-0.746296 1.323398,-1.121752 z" />
    <path
       id="path3884-6-1-2-9-6-6-0"
       style="color:#000000;text-indent:0;text-transform:none;fill:#000000;stroke-width:0.32572812"
       inkscape:connector-curvature="0"
       d="m 58.818878,74.097635 c -1.905299,1.597856 -3.819358,3.981938 -4.681736,5.880353 1.027166,-0.887736 2.779072,-2.428643 4.313904,-3.808477 0.416312,-0.374262 0.87951,-0.60669 1.6744,-0.661042 -0.532196,-0.376408 -0.899641,-0.910749 -1.306637,-1.410763 z" />
    <path
       id="path3886-8-5-4-3-7-0-8"
       style="fill:none;stroke:#000000;stroke-width:1.3229121;stroke-linecap:round;stroke-linejoin:round"
       inkscape:connector-curvature="0"
       d="m 37.87723,87.229436 c 3.276904,-0.963935 3.9695,-1.55099 5.469495,-2.255895" />
    <path
       id="path3888-4-4-9-8-4-7-4"
       style="fill:none;stroke:#000000;stroke-width:1.3229121;stroke-linecap:round;stroke-linejoin:round"
       inkscape:connector-curvature="0"
       d="m 35.775549,84.999202 c 3.250526,-1.925753 4.631941,-3.158109 6.680304,-4.63795" />
    <path
       id="path3890-1-8-5-1-8-9-7"
       style="fill:none;stroke:#000000;stroke-width:1.3229121;stroke-linecap:round;stroke-linejoin:round"
       inkscape:connector-curvature="0"
       d="m 33.34764,82.263144 c 2.039165,-1.612525 2.851142,-2.56267 4.043384,-3.718029" />
  </g>
</svg>
