<?xml version="1.0" encoding="UTF-8" standalone="no"?>
<!-- Created with Inkscape (http://www.inkscape.org/) -->

<svg
   xmlns:dc="http://purl.org/dc/elements/1.1/"
   xmlns:cc="http://creativecommons.org/ns#"
   xmlns:rdf="http://www.w3.org/1999/02/22-rdf-syntax-ns#"
   xmlns:svg="http://www.w3.org/2000/svg"
   xmlns="http://www.w3.org/2000/svg"
   xmlns:sodipodi="http://sodipodi.sourceforge.net/DTD/sodipodi-0.dtd"
   xmlns:inkscape="http://www.inkscape.org/namespaces/inkscape"
   width="36.318382mm"
   height="31.000063mm"
   viewBox="0 0 36.318382 31.000063"
   version="1.1"
   id="svg3819"
   inkscape:version="0.92.1 r15371"
   sodipodi:docname="rock.svg">
  <defs
     id="defs3813" />
  <sodipodi:namedview
     id="base"
     pagecolor="#ffffff"
     bordercolor="#666666"
     borderopacity="1.0"
     inkscape:pageopacity="0.0"
     inkscape:pageshadow="2"
     inkscape:zoom="0.35"
     inkscape:cx="65.776022"
     inkscape:cy="-38.560088"
     inkscape:document-units="mm"
     inkscape:current-layer="layer1"
     showgrid="false"
     inkscape:window-width="1920"
     inkscape:window-height="1017"
     inkscape:window-x="1912"
     inkscape:window-y="-8"
     inkscape:window-maximized="1" />
  <metadata
     id="metadata3816">
    <rdf:RDF>
      <cc:Work
         rdf:about="">
        <dc:format>image/svg+xml</dc:format>
        <dc:type
           rdf:resource="http://purl.org/dc/dcmitype/StillImage" />
        <dc:title></dc:title>
      </cc:Work>
    </rdf:RDF>
  </metadata>
  <g
     inkscape:label="Layer 1"
     inkscape:groupmode="layer"
     id="layer1"
     transform="translate(-88.430094,-107.63091)">
    <path
       id="path32292"
       style="fill:#ffffff;stroke:#000000;stroke-width:1.32287061;stroke-linecap:round;stroke-linejoin:round"
       inkscape:connector-curvature="0"
       d="m 119.98951,128.08457 c 2.15416,0.8837 3.19102,-0.67189 3.83065,-2.647 0.90404,-2.79411 -0.76481,-9.08043 -2.43451,-11.05631 -1.54437,-1.81159 -3.45617,-2.4185 -4.87859,-1.20975" />
    <path
       id="path32294"
       style="fill:#ffffff;stroke:#000000;stroke-width:1.32287061;stroke-linecap:round;stroke-linejoin:round"
       inkscape:connector-curvature="0"
       d="m 102.03323,108.49593 c 5.00489,-1.08609 13.67772,2.38761 16.4449,7.70689 1.39839,2.75177 2.73598,9.2351 1.40153,11.81394 -2.26058,4.41322 -5.70326,7.01114 -10.18925,8.6582 -1.58906,0.58167 -3.44144,0.96148 -5.0001,1.116 -6.361085,0.68317 -11.373635,-0.55555 -11.332465,-4.97859 -5.38048,-0.48514 -5.42282,-8.66526 -1.47906,-9.33757 -5.23404,-3.33786 -1.91256,-9.94854 3.95106,-8.39119 0.56588,-1.0165 1.00748,-5.45839 6.203385,-6.58768 z" />
    <path
       id="path32296"
       style="fill:#000000;stroke-width:1.88297522"
       inkscape:connector-curvature="0"
       d="m 92.172745,124.11411 c 4.19455,0.62293 5.77437,-0.1499 6.88242,-0.28577 -2.65089,-0.3232 -3.33105,-0.33449 -6.1213,-0.88726 -0.47458,-0.0946 -0.96291,-0.24047 -1.54181,-0.64894 l 0.0261,2.01393 c -0.0945,0.0291 0.45259,-0.19059 0.75445,-0.19194 z" />
    <path
       id="path32298"
       style="fill:#000000;stroke-width:1.88297522"
       inkscape:connector-curvature="0"
       d="m 92.943045,133.4137 c 2.48682,0.0995 5.55554,-0.0602 7.468105,-0.8851 -1.368255,-0.0346 -4.899725,-0.35904 -6.960945,-0.36981 -2e-5,-0.004 0.004,0.003 -0.50729,1.25494 z" />
    <path
       id="path32300"
       style="fill:none;stroke:#000000;stroke-width:1.32287061;stroke-linecap:round;stroke-linejoin:round"
       inkscape:connector-curvature="0"
       d="m 117.03794,125.31588 c -2.91118,1.79873 -3.81476,1.92398 -5.32768,2.56896" />
    <path
       id="path32302"
       style="fill:none;stroke:#000000;stroke-width:1.32287061;stroke-linecap:round;stroke-linejoin:round"
       inkscape:connector-curvature="0"
       d="m 116.77873,122.26249 c -3.61101,1.13813 -5.45797,1.34619 -7.91205,1.8823" />
    <path
       id="path32304"
       style="fill:none;stroke:#000000;stroke-width:1.32287061;stroke-linecap:round;stroke-linejoin:round"
       inkscape:connector-curvature="0"
       d="m 116.36038,118.62863 c -2.56775,0.4445 -3.82576,0.41684 -5.457,0.53023" />
    <path
       id="path32306"
       style="fill:#000000;stroke-width:1.88297522"
       inkscape:connector-curvature="0"
       d="m 95.400185,114.40044 c 5.597395,0.38544 7.457045,-1.59319 10.015855,-3.12092 -2.56449,2.10891 -3.16819,4.51338 -9.645095,4.46474 z" />
  </g>
</svg>
