<?xml version="1.0" encoding="UTF-8" standalone="no"?>
<!-- Created with Inkscape (http://www.inkscape.org/) -->

<svg
   xmlns:dc="http://purl.org/dc/elements/1.1/"
   xmlns:cc="http://creativecommons.org/ns#"
   xmlns:rdf="http://www.w3.org/1999/02/22-rdf-syntax-ns#"
   xmlns:svg="http://www.w3.org/2000/svg"
   xmlns="http://www.w3.org/2000/svg"
   xmlns:sodipodi="http://sodipodi.sourceforge.net/DTD/sodipodi-0.dtd"
   xmlns:inkscape="http://www.inkscape.org/namespaces/inkscape"
   width="48.675285mm"
   height="34.259335mm"
   viewBox="0 0 48.675285 34.259335"
   version="1.1"
   id="svg3749"
   inkscape:version="0.92.1 r15371"
   sodipodi:docname="scissors.svg">
  <defs
     id="defs3743" />
  <sodipodi:namedview
     id="base"
     pagecolor="#ffffff"
     bordercolor="#666666"
     borderopacity="1.0"
     inkscape:pageopacity="0.0"
     inkscape:pageshadow="2"
     inkscape:zoom="4.6418114"
     inkscape:cx="66.856949"
     inkscape:cy="58.628387"
     inkscape:document-units="mm"
     inkscape:current-layer="layer1"
     showgrid="false"
     inkscape:window-width="1920"
     inkscape:window-height="1017"
     inkscape:window-x="1912"
     inkscape:window-y="-8"
     inkscape:window-maximized="1" />
  <metadata
     id="metadata3746">
    <rdf:RDF>
      <cc:Work
         rdf:about="">
        <dc:format>image/svg+xml</dc:format>
        <dc:type
           rdf:resource="http://purl.org/dc/dcmitype/StillImage" />
        <dc:title></dc:title>
      </cc:Work>
    </rdf:RDF>
  </metadata>
  <g
     inkscape:label="Layer 1"
     inkscape:groupmode="layer"
     id="layer1"
     transform="translate(-73.936166,-93.150096)">
    <g
       id="g3779">
      <path
         d="m 77.741288,109.82615 c -2.298741,0.37065 -2.954667,-1.38002 -3.128354,-3.44889 -0.244903,-2.92655 2.809931,-8.668731 4.885284,-10.213135 1.915934,-1.412922 3.915705,-1.569143 5.025979,-0.06854"
         inkscape:connector-curvature="0"
         style="fill:#ffffff;stroke:#000000;stroke-width:1.32289803;stroke-linecap:round;stroke-linejoin:round"
         id="imagebot_18" />
      <path
         d="m 99.682406,94.834184 c -4.62684,-2.195906 -13.86259,-0.78561 -17.767076,3.765053 -1.987601,2.361693 -4.764659,8.371053 -4.051647,11.185863 1.197703,4.81179 3.959392,8.12464 7.953337,10.74882 1.415165,0.92783 3.132662,1.71898 4.615363,2.22394 5.453592,1.779 10.235907,-1.02827 12.168007,-2.27092 3.47395,1.35821 7.49078,3.41067 11.1735,5.56568 5.50842,3.22345 7.37787,-5.54664 2.18674,-8.51348 -2.43017,-1.38879 -4.29818,-2.83533 -9.79629,-5.80889 3.48693,0.32065 8.58854,0.5488 11.88216,1.27285 5.43421,1.19532 5.37087,-7.32425 -1.3034,-8.64573 -4.54514,-0.89961 -8.17943,-0.86034 -12.51797,-1.69718 -0.31988,-1.11858 0.26029,-5.544597 -4.542724,-7.826006 z"
         inkscape:connector-curvature="0"
         style="fill:#ffffff;stroke:#000000;stroke-width:1.32289803;stroke-linecap:round;stroke-linejoin:round"
         id="imagebot_17" />
      <path
         d="m 106.55872,111.10225 c -4.19103,-0.64693 -6.48906,-0.0201 -7.597999,0.10945 2.649039,0.33837 3.329159,0.35355 6.116179,0.92228 0.47404,0.0973 1.00854,0.28761 1.62099,0.62282 z"
         inkscape:connector-curvature="0"
         style="fill:#000000;stroke-width:1.88301408"
         id="imagebot_16" />
      <path
         d="m 102.82065,119.86298 c -2.31855,-0.90489 -5.327728,-1.43822 -7.404923,-1.28202 2.531346,0.92862 4.530824,1.65929 6.962723,2.48762 0.003,-0.006 0.19679,-0.60963 0.44103,-1.20618 z"
         inkscape:connector-curvature="0"
         style="fill:#000000;stroke-width:1.88301408"
         id="imagebot_15" />
      <path
         d="m 81.245249,107.80123 c 2.425874,2.41371 3.27731,2.74118 4.603926,3.71335"
         inkscape:connector-curvature="0"
         style="fill:none;stroke:#000000;stroke-width:1.32289803;stroke-linecap:round;stroke-linejoin:round"
         id="imagebot_14" />
      <path
         d="m 82.192095,104.88673 c 3.257621,1.92958 5.008902,2.55225 7.276798,3.63244"
         inkscape:connector-curvature="0"
         style="fill:none;stroke:#000000;stroke-width:1.32289803;stroke-linecap:round;stroke-linejoin:round"
         id="imagebot_13" />
      <path
         d="m 83.425937,101.44317 c 2.399424,1.01684 3.63079,1.27601 5.193524,1.75742"
         inkscape:connector-curvature="0"
         style="fill:none;stroke:#000000;stroke-width:1.32289803;stroke-linecap:round;stroke-linejoin:round"
         id="imagebot_12" />
      <path
         d="m 104.79891,102.09262 c -5.538478,-0.89765 -6.899442,-3.247407 -9.043807,-5.317086 2.017714,2.636936 2.058765,5.115746 8.377137,6.541406 z"
         inkscape:connector-curvature="0"
         style="fill:#000000;stroke-width:1.88301408"
         id="imagebot_11" />
    </g>
  </g>
</svg>
